<svg xmlns="http://www.w3.org/2000/svg" xmlns:xlink="http://www.w3.org/1999/xlink" width="147" height="148" viewBox="0 0 147 148"><defs><clipPath id="a"><rect width="147" height="148" fill="none"/></clipPath></defs><g clip-path="url(#a)"><path d="M0,74C0,33.131,32.907,0,73.5,0S147,33.131,147,74s-32.907,74-73.5,74S0,114.869,0,74Z" fill="#fff"/><g transform="translate(41.649 41.931)"><path d="M28.456,12.4A17.586,17.586,0,0,1,40.77,17.176l8.988-8.849A30.486,30.486,0,0,0,28.456,0,31.806,31.806,0,0,0,0,17.682l10.3,8.044A19.264,19.264,0,0,1,28.456,12.4Z" transform="translate(3.395 0.001)" fill="#ea4335"/><path d="M30.576,6.555A27.649,27.649,0,0,0,29.9,0H0V11.9H17.554A15.685,15.685,0,0,1,11.04,22.3l10.051,7.838A31.462,31.462,0,0,0,30.585,6.555Z" transform="translate(31.851 26.226)" fill="#4285f4"/><path d="M13.733,20.735a19.855,19.855,0,0,1-1.063-6.342A20.873,20.873,0,0,1,13.7,8.051L3.4,0a32.193,32.193,0,0,0,0,28.789Z" transform="translate(0 17.676)" fill="#fbbc05"/><path d="M28.417,25.724a30.234,30.234,0,0,0,21.091-7.767L39.457,10.119a18.757,18.757,0,0,1-11.04,3.207A19.188,19.188,0,0,1,10.3,0L0,8.054A31.752,31.752,0,0,0,28.417,25.724Z" transform="translate(3.434 38.411)" fill="#34a853"/><path d="M0,0H63.7V64.133H0Z" transform="translate(0.001 0.002)" fill="none"/></g></g></svg>