<svg xmlns="http://www.w3.org/2000/svg" xmlns:xlink="http://www.w3.org/1999/xlink" width="48" height="48" viewBox="0 0 48 48">
  <defs>
    <clipPath id="clip-path">
      <rect width="48" height="48" fill="none"/>
    </clipPath>
  </defs>
  <g id="Mastercard" clip-path="url(#clip-path)">
    <g id="Mastercard-2" data-name="Mastercard">
      <circle id="Oval" cx="24" cy="24" r="24" fill="#fff"/>
      <g id="g3110" transform="translate(9.6 15.2)">
        <path id="path2997" d="M17.794,8.914A8.9,8.9,0,1,1,8.9,0a8.905,8.905,0,0,1,8.9,8.914Z" transform="translate(10.985 0.002)" fill="#f79f1a"/>
        <path id="path2995" d="M17.794,8.914A8.9,8.9,0,1,1,8.9,0a8.905,8.905,0,0,1,8.9,8.914Z" transform="translate(0.009 0.002)" fill="#ea001b"/>
        <path id="path2999" d="M3.408,0a8.928,8.928,0,0,0,0,14.034A8.906,8.906,0,0,0,6.817,7.016,8.9,8.9,0,0,0,3.408,0Z" transform="translate(10.986 1.899)" fill="#ff5f01"/>
      </g>
    </g>
  </g>
</svg>
