<svg xmlns="http://www.w3.org/2000/svg" xmlns:xlink="http://www.w3.org/1999/xlink" width="48" height="48" viewBox="0 0 48 48">
  <defs>
    <clipPath id="clip-path">
      <rect width="48" height="48" fill="none"/>
    </clipPath>
    <linearGradient id="linear-gradient" x1="0.5" y1="0.068" x2="0.5" y2="0.956" gradientUnits="objectBoundingBox">
      <stop offset="0" stop-color="#00c6ff"/>
      <stop offset="1" stop-color="#0068ff"/>
    </linearGradient>
  </defs>
  <g id="Messenger" clip-path="url(#clip-path)">
    <g id="Messenger-2" data-name="Messenger">
      <circle id="Oval" cx="24" cy="24" r="24" fill="#fff"/>
      <g id="logo" transform="translate(9.6 9.6)">
        <path id="Shape" d="M5.257,23.641v5.123l4.79-2.723a15.245,15.245,0,0,0,4.225.593c7.883,0,14.273-5.963,14.273-13.317S22.156,0,14.273,0,0,5.962,0,13.317A12.972,12.972,0,0,0,5.257,23.641Z" transform="translate(0 0)" fill="url(#linear-gradient)"/>
        <path id="Shape-2" data-name="Shape" d="M7.7,0,0,8.15,7.005,4.306l3.66,3.843L18.319,0,11.391,3.776,7.7,0Z" transform="translate(5.051 9.669)" fill="#fff"/>
      </g>
    </g>
  </g>
</svg>
